HIERARCHY
ROOT hip
{
  OFFSET 0 0 0
  CHANNELS 6 Xposition Yposition Zposition Zrotation Yrotation Xrotation
  JOINT abdomen
  {
    OFFSET 0 20.6881 -0.73152
    CHANNELS 3 Zrotation Xrotation Yrotation
    JOINT chest
    {
      OFFSET 0 11.7043 -0.48768
      CHANNELS 3 Zrotation Xrotation Yrotation
      JOINT neck
      {
        OFFSET 0 22.1894 -2.19456
        CHANNELS 3 Zrotation Xrotation Yrotation
        JOINT head
        {
          OFFSET -0.24384 7.07133 1.2192
          CHANNELS 3 Zrotation Xrotation Yrotation
          JOINT leftEye
          {
            OFFSET 4.14528 8.04674 8.04672
            CHANNELS 3 Zrotation Xrotation Yrotation
            End Site
            {
              OFFSET 1 0 0
            }
          }
          JOINT rightEye
          {
            OFFSET -3.6576 8.04674 8.04672
            CHANNELS 3 Zrotation Xrotation Yrotation
            End Site
            {
              OFFSET 1 0 0
            }
          }
        }
      }
      JOINT rCollar
      {
        OFFSET -2.68224 19.2634 -4.8768
        CHANNELS 3 Zrotation Xrotation Yrotation
        JOINT rShldr
        {
          OFFSET -8.77824 -1.95073 1.46304
          CHANNELS 3 Zrotation Xrotation Yrotation
          JOINT rForeArm
          {
            OFFSET -28.1742 -1.7115 0.48768
            CHANNELS 3 Zrotation Xrotation Yrotation
            JOINT rHand
            {
              OFFSET -22.5879 0.773209 7.07136
              CHANNELS 3 Zrotation Xrotation Yrotation
              JOINT rThumb1
              {
                OFFSET -1.2192 -0.487915 3.41376
                CHANNELS 3 Zrotation Xrotation Yrotation
                JOINT rThumb2
                {
                  OFFSET -3.37035 -0.52449 3.41376
                  CHANNELS 3 Zrotation Xrotation Yrotation
                  End Site
                  {
                    OFFSET -1.78271 -1.18214 1.43049
                  }
                }
              }
              JOINT rIndex1
              {
                OFFSET -7.75947 0.938293 5.60832
                CHANNELS 3 Zrotation Xrotation Yrotation
                JOINT rIndex2
                {
                  OFFSET -2.54057 -0.884171 1.56538
                  CHANNELS 3 Zrotation Xrotation Yrotation
                  End Site
                  {
                    OFFSET -1.62519 -0.234802 1.16502
                  }
                }
              }
              JOINT rMid1
              {
                OFFSET -8.24714 1.18213 3.41376
                CHANNELS 3 Zrotation Xrotation Yrotation
                JOINT rMid2
                {
                  OFFSET -3.10165 -0.590103 1.0647
                  CHANNELS 3 Zrotation Xrotation Yrotation
                  End Site
                  {
                    OFFSET -2.48547 -0.328903 0.83742
                  }
                }
              }
              JOINT rRing1
              {
                OFFSET -8.82822 0.546677 1.51678
                CHANNELS 3 Zrotation Xrotation Yrotation
                JOINT rRing2
                {
                  OFFSET -2.60934 -0.819778 -0.0198488
                  CHANNELS 3 Zrotation Xrotation Yrotation
                  End Site
                  {
                    OFFSET -2.33842 -0.294052 0.168128
                  }
                }
              }
              JOINT rPinky1
              {
                OFFSET -8.27202 -0.0477905 -0.4584
                CHANNELS 3 Zrotation Xrotation Yrotation
                JOINT rPinky2
                {
                  OFFSET -1.82734 -0.647385 -0.700984
                  CHANNELS 3 Zrotation Xrotation Yrotation
                  End Site
                  {
                    OFFSET -1.69225 -0.51767 -0.607171
                  }
                }
              }
            }
          }
        }
      }
      JOINT lCollar
      {
        OFFSET 2.68224 19.2634 -4.8768
        CHANNELS 3 Zrotation Xrotation Yrotation
        JOINT lShldr
        {
          OFFSET 8.77824 -1.95073 1.46304
          CHANNELS 3 Zrotation Xrotation Yrotation
          JOINT lForeArm
          {
            OFFSET 28.1742 -1.7115 0.48768
            CHANNELS 3 Zrotation Xrotation Yrotation
            JOINT lHand
            {
              OFFSET 22.5879 0.773209 7.07136
              CHANNELS 3 Zrotation Xrotation Yrotation
              JOINT lThumb1
              {
                OFFSET 1.2192 -0.487915 3.41376
                CHANNELS 3 Zrotation Xrotation Yrotation
                JOINT lThumb2
                {
                  OFFSET 3.37035 -0.52449 3.41376
                  CHANNELS 3 Zrotation Xrotation Yrotation
                  End Site
                  {
                    OFFSET 1.78271 -1.18214 1.43049
                  }
                }
              }
              JOINT lIndex1
              {
                OFFSET 7.75947 0.938293 5.60832
                CHANNELS 3 Zrotation Xrotation Yrotation
                JOINT lIndex2
                {
                  OFFSET 2.54057 -0.884171 1.56538
                  CHANNELS 3 Zrotation Xrotation Yrotation
                  End Site
                  {
                    OFFSET 1.62519 -0.234802 1.16502
                  }
                }
              }
              JOINT lMid1
              {
                OFFSET 8.24714 1.18213 3.41376
                CHANNELS 3 Zrotation Xrotation Yrotation
                JOINT lMid2
                {
                  OFFSET 3.10165 -0.590103 1.0647
                  CHANNELS 3 Zrotation Xrotation Yrotation
                  End Site
                  {
                    OFFSET 2.48547 -0.328903 0.83742
                  }
                }
              }
              JOINT lRing1
              {
                OFFSET 8.82822 0.546677 1.51678
                CHANNELS 3 Zrotation Xrotation Yrotation
                JOINT lRing2
                {
                  OFFSET 2.60934 -0.819778 -0.0198488
                  CHANNELS 3 Zrotation Xrotation Yrotation
                  End Site
                  {
                    OFFSET 2.33842 -0.294052 0.168128
                  }
                }
              }
              JOINT lPinky1
              {
                OFFSET 8.27202 -0.0477905 -0.4584
                CHANNELS 3 Zrotation Xrotation Yrotation
                JOINT lPinky2
                {
                  OFFSET 1.82734 -0.647385 -0.700984
                  CHANNELS 3 Zrotation Xrotation Yrotation
                  End Site
                  {
                    OFFSET 1.69225 -0.51767 -0.607171
                  }
                }
              }
            }
          }
        }
      }
    }
  }
  JOINT rButtock
  {
    OFFSET -8.77824 4.35084 1.2192
    CHANNELS 3 Zrotation Xrotation Yrotation
    JOINT rThigh
    {
      OFFSET 0 -1.70687 -2.19456
      CHANNELS 3 Zrotation Xrotation Yrotation
      JOINT rShin
      {
        OFFSET 0 -36.8199 0.73152
        CHANNELS 3 Zrotation Xrotation Yrotation
        JOINT rFoot
        {
          OFFSET 0.73152 -45.1104 -5.12064
          CHANNELS 3 Zrotation Xrotation Yrotation
          End Site
          {
            OFFSET -1.1221 -3.69964 12.103
          }
        }
      }
    }
  }
  JOINT lButtock
  {
    OFFSET 8.77824 4.35084 1.2192
    CHANNELS 3 Zrotation Xrotation Yrotation
    JOINT lThigh
    {
      OFFSET 0 -1.70687 -2.19456
      CHANNELS 3 Zrotation Xrotation Yrotation
      JOINT lShin
      {
        OFFSET 0 -36.8199 0.73152
        CHANNELS 3 Zrotation Xrotation Yrotation
        JOINT lFoot
        {
          OFFSET -0.73152 -45.1104 -5.12064
          CHANNELS 3 Zrotation Xrotation Yrotation
          End Site
          {
            OFFSET 1.1221 -3.69964 12.103
          }
        }
      }
    }
  }
}
MOTION
Frames:	4
Frame Time:	0.03333
-8.597299999999999 67.2148 -49.6278 -77.533549 -83.28431 86.627804 -8.212193 -3.616357 90.021304 -8.692682 8.611716 -69.603579 6.403366 15.558204 -175.226427 -6.261283 4.998271 -163.378745 -0.003908 0.0 -0.001733 0.001878 0.0 0.000659 -157.372204 -17.927963 164.689274 -113.754432 -82.322789 -81.316047 172.440925 67.602917 58.155983 -131.758213 38.087987 118.086813 -179.373311 -16.877156 89.360094 26.863973 -68.534109 19.903888 -108.42723 34.160902 91.743052 -66.413756 54.039311 45.999624 -39.288327 53.365994 32.878526 -163.345881 -5.53467 143.327185 -145.121789 1.974375 -179.748992 -145.200385 -50.816392 -167.34428 -8.18803 -17.576672 -7.728539 -158.28499 52.468359 -149.85584 6.041803 25.599379 -7.233264 11.687996 59.211732 -52.601515 18.146573 -57.23787 -38.759358 11.159705 -50.174742 12.598349 2.608327 2.554582 -0.457765 142.905761 -49.638172 -118.574221 140.685977 1.506648 -116.18377 86.921819 56.406151 -66.717671 125.643536 49.839302 -115.27313 -6.132566 -8.165557 0.641569 -4.3e-05 0.063614 -0.021314 140.372257 60.458036 -154.520376 -0.464803 1.226406 -0.4295 163.106621 65.252275 149.806669 -179.994674 75.749025 -0.005495 179.669532 48.827572 0.244433 35.857899 38.633961 79.477808 54.540337 57.413288 -165.260568 179.985288 75.75064 0.012981 -148.885751 18.557115 117.801437 47.49416 -13.332228 -132.318383 92.605154 41.11022 -1.243746
-9.0221 67.7588 -49.6359 -73.662303 -83.294048 82.515536 -2.997011 -5.597945 -117.303785 11.779733 -8.206548 138.71252 14.842173 10.590368 128.230448 2.694271 1.445924 -108.659868 0.00244 -0.0 -0.002614 0.000928 0.0 0.000983 -155.537678 -3.733499 161.884438 -39.843191 13.549664 6.103403 -0.208618 22.673534 -128.487049 -138.811479 32.232626 125.667888 1.589844 -1.576003 -0.223012 46.319786 -71.966875 -15.274137 -155.194569 -24.299583 122.143049 -173.416843 -39.099777 116.687668 -160.672606 -6.667982 143.245032 -13.645221 36.286592 11.086931 -0.020272 -1.724467 -0.541178 10.423927 0.62464 0.007154 9.966339 32.461908 8.625814 -151.857159 25.217405 -146.320209 -2.459302 -18.216348 3.669703 127.75758 75.6111 -165.946299 52.231626 -16.628011 -16.05415 136.861393 -88.489023 152.741235 0.440997 0.435468 -0.07032 138.670119 -42.673388 -119.014212 -2.32456 -3.868194 1.259202 152.381995 -1.160256 -109.509363 -1.280936 -3.80325 0.678834 42.078485 58.557647 -36.098175 69.012911 72.942446 -86.718478 159.841355 0.059609 -176.16637 -7.930357 24.811174 -7.003407 147.381983 10.261646 143.237992 0.000874 -8.7e-05 0.000656 -0.218449 -27.502484 -180.0 -34.951991 -38.090713 -114.016724 -98.902579 -37.116572 -169.894559 -179.99974 75.749729 -0.000178 -149.075113 23.160853 -103.386237 -46.777102 -7.709213 167.989698 171.378015 -17.598736 31.400254
-9.2013 68.38149999999999 -49.7414 -65.476882 -84.045879 74.123418 -7.510014 -6.155262 129.12289 0.596461 9.765145 -109.814909 15.474561 1.837792 73.35348 8.881431 7.412102 -53.674097 -0.002673 0.0 -0.007224 9.5e-05 0.0 0.00229 -0.024068 0.144902 0.032198 54.23818 10.614925 7.149428 7.90313 42.890084 93.757836 -17.311397 -47.246553 -12.627037 4.530195 -4.514388 -0.52078 26.684551 -51.351753 -20.869945 -108.428382 34.161628 91.743083 -66.415522 54.038171 45.99927 173.123929 -66.297799 137.615148 29.642249 -60.137734 6.927319 -0.02051 -1.72442 -0.541479 10.460615 0.117324 -0.055509 -146.213147 15.427644 -142.73791 -25.759218 -40.234239 -27.022233 0.164786 0.97922 -0.218962 -36.244847 2.555737 -7.685465 -89.318337 -19.566617 -47.593663 55.359575 46.941353 -35.429093 -93.02838 -51.083562 -40.500998 13.640777 -66.750277 39.895673 4.707968 7.223468 -2.855682 79.989777 48.097647 -61.730072 6.645834 17.10903 -4.325341 88.65505 64.071638 -80.446188 145.119983 0.184638 179.18813 152.404051 76.076854 -167.128609 1.148005 -2.914608 1.066088 166.011514 70.978912 148.716081 179.995779 75.750806 0.002888 178.009412 48.796997 -180.0 -28.192811 -37.299707 -153.573199 -37.230859 37.203831 -54.556264 0.0 -0.001164 0.000395 33.964856 -41.750373 -70.870883 -49.070308 -12.682384 -119.647681 -28.889896 23.547142 -102.686906
-9.3399 68.6466 -50.074600000000004 -48.145975 -84.911478 56.686109 -7.032096 -6.554387 -180.0 8.729846 4.853232 -161.513435 -0.851371 13.070192 -117.728595 -4.671612 9.370939 141.55393 -0.000254 -0.0 0.002579 -0.000254 -0.0 0.002579 -131.056224 54.037625 134.943238 -114.678863 39.22113 94.022876 7.087597 -8.725074 -129.438799 -134.187313 36.533762 120.408756 -2.813515 2.754462 0.497225 -96.85438 13.813919 88.91811 -16.30177 21.365675 11.141666 86.228416 -60.676247 37.14332 -0.219573 0.63843 0.123124 -42.065407 58.559979 36.100432 0.002147 -0.060923 -0.01867 9.703791 -62.549626 -9.189223 -81.324275 -51.18202 -79.740666 -149.011782 20.003266 -144.507477 152.12819 14.113096 -157.556625 -18.605675 -66.424421 -34.405362 -120.52654 10.22372 -146.588044 73.570797 53.940726 -53.371518 -66.257881 -46.843118 -22.116429 34.717109 17.122033 0.303419 83.733017 42.331302 -69.989887 1.283616 11.698213 2.42458 -5.891549 -18.352273 2.542886 7.370336 26.185568 -6.03419 72.35003 72.974729 -90.218118 73.420517 -82.471015 90.51556 152.202448 37.330096 147.581612 -1.040298 -1.986461 2.515875 0.000218 0.000605 -0.00028 -2.388159 -26.757069 -85.395533 -53.472872 17.563137 -52.576616 -174.804215 35.783677 -101.51267 0.0 0.000605 -0.00045 29.171637 -43.30274 -140.857065 4.288042 -41.856179 96.662711 64.464755 -40.102695 135.431421
